<svg width="24" height="24" viewBox="0 0 24 24" fill="none" xmlns="http://www.w3.org/2000/svg">
    <path
        d="M12.0002 13V10M12.0002 10V2L20.0002 6L12.0002 10ZM20.5612 10.222C21.0933 11.8621 21.1431 13.6206 20.7046 15.2882C20.2661 16.9559 19.3578 18.4624 18.0877 19.6287C16.8177 20.7949 15.2393 21.5718 13.5404 21.8668C11.8415 22.1619 10.0936 21.9626 8.50473 21.2929C6.91581 20.6231 5.55272 19.511 4.57766 18.0889C3.60259 16.6668 3.05658 14.9945 3.00458 13.2709C2.95259 11.5474 3.3968 9.84522 4.28437 8.36689C5.17194 6.88856 6.46551 5.69631 8.01117 4.932M8.00217 9.997C7.50107 10.664 7.17485 11.4458 7.05321 12.2712C6.93158 13.0966 7.0184 13.9392 7.30577 14.7224C7.59314 15.5057 8.07192 16.2045 8.6985 16.7554C9.32507 17.3062 10.0795 17.6915 10.8931 17.8762C11.7067 18.0608 12.5535 18.039 13.3565 17.8126C14.1595 17.5862 14.8931 17.1625 15.4904 16.5801C16.0877 15.9977 16.5298 15.275 16.7764 14.478C17.023 13.681 17.0662 12.835 16.9022 12.017"
        stroke="black" stroke-width="2" stroke-linecap="round" stroke-linejoin="round" />
</svg>