<svg width="24" height="24" viewBox="0 0 24 24" fill="none" xmlns="http://www.w3.org/2000/svg">
    <g clip-path="url(#clip0_452_35)">
        <path
            d="M2.49976 21.5L3.89976 20.1M20.0998 3.90001L21.4998 2.50001M9.59976 14.4L14.3998 9.60001M17.5958 12.768C17.9709 13.1432 18.4797 13.3539 19.0103 13.3539C19.5408 13.3539 20.0496 13.1432 20.4248 12.768C20.7999 12.3929 21.0107 11.884 21.0107 11.3535C21.0107 10.823 20.7999 10.3142 20.4248 9.93901L18.6568 8.17201C19.0319 8.54702 19.5407 8.75765 20.0711 8.75756C20.3338 8.75751 20.5938 8.70573 20.8365 8.60518C21.0791 8.50462 21.2996 8.35726 21.4853 8.17151C21.671 7.98575 21.8182 7.76524 21.9187 7.52257C22.0192 7.27989 22.0709 7.0198 22.0708 6.75715C22.0708 6.4945 22.019 6.23443 21.9184 5.99179C21.8179 5.74915 21.6705 5.5287 21.4848 5.34301L18.6568 2.51501C18.2817 2.13986 17.7731 1.92905 17.2426 1.92896C16.7122 1.92886 16.2034 2.13949 15.8283 2.51451C15.4531 2.88952 15.2423 3.39821 15.2422 3.92865C15.2421 4.4591 15.4527 4.96786 15.8278 5.34301L14.0608 3.57501C13.875 3.38925 13.6545 3.2419 13.4118 3.14137C13.1691 3.04084 12.909 2.9891 12.6463 2.9891C12.3836 2.9891 12.1234 3.04084 11.8807 3.14137C11.638 3.2419 11.4175 3.38925 11.2318 3.57501C11.046 3.76076 10.8987 3.98128 10.7981 4.22398C10.6976 4.46669 10.6459 4.72681 10.6459 4.98951C10.6459 5.2522 10.6976 5.51233 10.7981 5.75503C10.8987 5.99773 11.046 6.21825 11.2318 6.40401L17.5958 12.768ZM5.34276 21.485C5.71778 21.8602 6.22646 22.071 6.75691 22.0711C7.01956 22.0711 7.27965 22.0194 7.52232 21.9189C7.765 21.8185 7.98551 21.6712 8.17126 21.4855C8.35702 21.2998 8.50438 21.0794 8.60493 20.8367C8.70549 20.5941 8.75727 20.334 8.75731 20.0714C8.75736 19.8087 8.70567 19.5486 8.6052 19.3059C8.50474 19.0633 8.35745 18.8428 8.17176 18.657L9.93876 20.425C10.3139 20.8002 10.8227 21.0109 11.3533 21.0109C11.8838 21.0109 12.3926 20.8002 12.7678 20.425C13.1429 20.0499 13.3537 19.541 13.3537 19.0105C13.3537 18.48 13.1429 17.9712 12.7678 17.596L6.40376 11.232C6.21801 11.0463 5.99748 10.8989 5.75478 10.7984C5.51208 10.6978 5.25196 10.6461 4.98926 10.6461C4.72657 10.6461 4.46644 10.6978 4.22374 10.7984C3.98104 10.8989 3.76052 11.0463 3.57476 11.232C3.38901 11.4178 3.24166 11.6383 3.14113 11.881C3.0406 12.1237 2.98886 12.3838 2.98886 12.6465C2.98886 12.9092 3.0406 13.1693 3.14113 13.412C3.24166 13.6547 3.38901 13.8753 3.57476 14.061L5.34276 15.828C4.96761 15.453 4.45886 15.2424 3.92841 15.2425C3.39796 15.2425 2.88928 15.4534 2.51426 15.8285C2.13925 16.2037 1.92862 16.7124 1.92871 17.2429C1.9288 17.7733 2.13961 18.282 2.51476 18.657L5.34276 21.485Z"
            stroke="black" stroke-width="2" stroke-linecap="round" stroke-linejoin="round" />
    </g>
    <defs>
        <clipPath id="clip0_452_35">
            <rect width="24" height="24" fill="white" />
        </clipPath>
    </defs>
</svg>